<?xml version="1.0" encoding="UTF-8" standalone="no"?>
<svg
   version="1.1"
   x="0px"
   y="0px"
   viewBox="0 0 300 375"
   style="enable-background:new 0 0 300 300;"
   xml:space="preserve"
   id="svg2"
   sodipodi:docname="data.svg"
   inkscape:version="1.3 (0e150ed6c4, 2023-07-21)"
   xmlns:inkscape="http://www.inkscape.org/namespaces/inkscape"
   xmlns:sodipodi="http://sodipodi.sourceforge.net/DTD/sodipodi-0.dtd"
   xmlns="http://www.w3.org/2000/svg"
   xmlns:svg="http://www.w3.org/2000/svg"><defs
     id="defs2" /><sodipodi:namedview
     id="namedview2"
     pagecolor="#ffffff"
     bordercolor="#cccccc"
     borderopacity="1"
     inkscape:showpageshadow="0"
     inkscape:pageopacity="1"
     inkscape:pagecheckerboard="0"
     inkscape:deskcolor="#d1d1d1"
     inkscape:zoom="2.168"
     inkscape:cx="149.90775"
     inkscape:cy="108.62546"
     inkscape:window-width="1920"
     inkscape:window-height="1043"
     inkscape:window-x="0"
     inkscape:window-y="0"
     inkscape:window-maximized="1"
     inkscape:current-layer="svg2" /><path
     d="M264.1,136.8c-10.8,0-20.3,5.7-25.6,14.3l-30.4-8c0.2-1.6,0.2-3.3,0.2-5c0-11.4-3.7-22-9.9-30.7l38.9-38.9  c4.2,2.3,9.1,3.6,14.2,3.6c16.6,0,30-13.5,30-30c0-16.6-13.5-30-30-30s-30,13.5-30,30c0,5.1,1.3,10,3.6,14.2l-38.9,38.9  c-8.6-6.2-19.2-9.9-30.7-9.9c-16,0-30.4,7.2-40.1,18.5L65,73.3c0.6-2.4,0.9-4.9,0.9-7.5c0-16.6-13.5-30-30-30s-30,13.5-30,30  c0,16.6,13.5,30,30,30c7.8,0,14.8-3,20.2-7.8l50.6,30.5c-2.4,6-3.7,12.6-3.7,19.5c0,11.4,3.7,22,9.9,30.7l-62.7,62.7  c-4.2-2.3-9.1-3.6-14.2-3.6c-16.6,0-30,13.5-30,30s13.5,30,30,30s30-13.5,30-30c0-5.1-1.3-10-3.6-14.2L125,181  c7.6,5.4,16.7,8.9,26.5,9.7l2.6,30.7c-11.1,4.4-19,15.3-19,27.9c0,16.6,13.5,30,30,30c16.6,0,30-13.5,30-30  c0-14.5-10.3-26.6-23.9-29.4l-2.6-30.6c15.6-4,28.5-15,35-29.4l30.4,8c0.5,16.1,13.8,29,30,29c16.6,0,30-13.5,30-30  C294.2,150.3,280.7,136.8,264.1,136.8z M35.9,78.6c-7,0-12.7-5.7-12.7-12.7c0-7,5.7-12.7,12.7-12.7s12.7,5.7,12.7,12.7  C48.6,72.9,42.9,78.6,35.9,78.6z M251.7,29.4c7,0,12.7,5.7,12.7,12.7s-5.7,12.7-12.7,12.7c-7,0-12.7-5.7-12.7-12.7  S244.7,29.4,251.7,29.4z M35.9,270.6c-7,0-12.7-5.7-12.7-12.7c0-7,5.7-12.7,12.7-12.7s12.7,5.7,12.7,12.7  C48.6,264.9,42.9,270.6,35.9,270.6z M178,249.3c0,7-5.7,12.7-12.7,12.7c-7,0-12.7-5.7-12.7-12.7c0-7,5.7-12.7,12.7-12.7  C172.3,236.5,178,242.3,178,249.3z M155.7,173.6c-19.6,0-35.5-15.9-35.5-35.5s15.9-35.5,35.5-35.5s35.5,15.9,35.5,35.5  S175.2,173.6,155.7,173.6z M264.1,179.6c-7,0-12.7-5.7-12.7-12.7s5.7-12.7,12.7-12.7c7,0,12.7,5.7,12.7,12.7  S271.2,179.6,264.1,179.6z"
     id="path1"
     style="fill:#ed771d;fill-opacity:1" /></svg>
