<?xml version="1.0" encoding="UTF-8" standalone="no"?>
<!-- Created with Inkscape (http://www.inkscape.org/) -->

<svg
   width="2048"
   height="384"
   viewBox="0 0 541.86667 101.6"
   version="1.1"
   id="svg32680"
   sodipodi:docname="delay6.svg"
   inkscape:version="1.3 (0e150ed6c4, 2023-07-21)"
   xmlns:inkscape="http://www.inkscape.org/namespaces/inkscape"
   xmlns:sodipodi="http://sodipodi.sourceforge.net/DTD/sodipodi-0.dtd"
   xmlns="http://www.w3.org/2000/svg"
   xmlns:svg="http://www.w3.org/2000/svg">
  <sodipodi:namedview
     id="namedview32682"
     pagecolor="#ffffff"
     bordercolor="#cccccc"
     borderopacity="1"
     inkscape:showpageshadow="0"
     inkscape:pageopacity="1"
     inkscape:pagecheckerboard="0"
     inkscape:deskcolor="#d1d1d1"
     inkscape:document-units="mm"
     showgrid="false"
     inkscape:zoom="0.95831125"
     inkscape:cx="408.53116"
     inkscape:cy="90.26295"
     inkscape:window-width="1440"
     inkscape:window-height="831"
     inkscape:window-x="0"
     inkscape:window-y="0"
     inkscape:window-maximized="1"
     inkscape:current-layer="layer1" />
  <defs
     id="defs32677" />
  <g
     inkscape:label="Layer 1"
     inkscape:groupmode="layer"
     id="layer1">
    <path
       id="rect8928"
       style="fill:#000000;fill-opacity:1;stroke-width:7.0806;stroke-linecap:round;stroke-linejoin:round;paint-order:stroke fill markers;stop-color:#000000"
       d="m 542.12268,42.047868 v 1.479507 H -27.246064 v -1.479507 z" />
    <rect
       style="fill:#000000;fill-opacity:1;stroke:none;stroke-width:10.4307;stroke-linecap:round;stroke-linejoin:round;stroke-dasharray:none;stroke-opacity:1;paint-order:stroke fill markers;stop-color:#000000"
       id="rect10797"
       width="2.2165875"
       height="40.456127"
       x="-362.70746"
       y="1.8622073"
       ry="0.81373572"
       transform="scale(-1,1)" />
    <path
       id="rect17963"
       style="fill:#000000;fill-opacity:1;stroke:none;stroke-width:12.173;stroke-linecap:round;stroke-linejoin:round;stroke-dasharray:none;stroke-opacity:1;paint-order:stroke fill markers;stop-color:#000000"
       d="m 361.39015,5.7205343 v 6.3061307 h -5.06608 a 5.1058646,5.1058646 0 0 0 0.008,-0.245837 5.1058646,5.1058646 0 0 0 -5.05517,-5.1049637 v -0.95533 z" />
    <path
       id="path18774"
       style="fill:#000000;fill-opacity:1;stroke:none;stroke-width:12.173;stroke-linecap:round;stroke-linejoin:round;stroke-dasharray:none;stroke-opacity:1;paint-order:stroke fill markers;stop-color:#000000"
       d="m 361.39015,15.280095 v 6.306134 h -5.06608 a 5.1058646,5.1058646 0 0 0 0.008,-0.245837 5.1058646,5.1058646 0 0 0 -5.05517,-5.104968 v -0.955329 z" />
    <rect
       style="fill:#000000;fill-opacity:1;stroke:none;stroke-width:12.173;stroke-linecap:round;stroke-linejoin:round;stroke-dasharray:none;stroke-opacity:1;paint-order:stroke fill markers;stop-color:#000000"
       id="rect19502"
       width="1.7013611"
       height="8.5879192"
       x="-361.06879"
       y="4.5581775"
       transform="scale(-1,1)" />
    <rect
       style="fill:#000000;fill-opacity:1;stroke:none;stroke-width:12.173;stroke-linecap:round;stroke-linejoin:round;stroke-dasharray:none;stroke-opacity:1;paint-order:stroke fill markers;stop-color:#000000"
       id="rect19504"
       width="1.7013611"
       height="8.5879192"
       x="-361.06879"
       y="14.11774"
       transform="scale(-1,1)" />
    <path
       d="m 110.43613,31.820561 h 4.0701 c 0.45223,0 0.90447,-0.452233 0.90447,-0.904466 v -5.652926 c 0,-0.452233 -0.45224,-0.904466 -0.90447,-0.904466 h -4.0701 c -0.45224,0 -0.90446,0.452233 -0.90446,0.904466 0,0.452233 0.45222,0.904466 0.90446,0.904466 h 3.16562 v 3.843991 h -3.16562 c -0.45224,0 -0.90446,0.452233 -0.90446,0.904469 0,0.452233 0.45222,0.904466 0.90446,0.904466 z"
       id="path14"
       style="fill:#000000;fill-opacity:1;stroke-width:1.13059" />
    <path
       d="m 110.33674,40.865249 h 74.61884 c 1.69588,0 3.1656,-0.565296 4.0701,-1.695879 0.67836,-0.791411 0.90448,-1.808934 0.79138,-2.826461 -0.33901,-2.148115 -2.37421,-4.974581 -4.63538,-6.557398 l -8.47933,-5.992102 c -2.14812,-1.582825 -6.10522,-2.826466 -8.70569,-2.826466 h -57.65992 c -0.45222,0 -0.90445,0.452234 -0.90445,0.90447 0,0.452233 0.45223,0.90447 0.90445,0.90447 h 57.65992 c 2.2612,0 5.76614,1.130584 7.68814,2.487286 l 8.47935,5.992099 c 1.80891,1.356706 3.61789,3.843996 3.844,5.426812 0.1129,0.452236 0,0.90447 -0.33904,1.356706 -0.5653,0.678351 -1.58281,1.017527 -2.71342,1.017527 h -74.61893 c -0.45221,0 -0.90445,0.452232 -0.90445,0.904466 0,0.452236 0.45224,0.90447 0.90445,0.90447 z"
       id="path21936"
       style="fill:#000000;fill-opacity:1;stroke-width:1.13059" />
    <path
       d="m 169.12724,31.820561 h 15.82834 c 0.33902,0 0.79136,-0.226114 0.90445,-0.67835 0.1129,-0.339154 0,-0.791409 -0.33904,-1.017527 l -7.91408,-5.652924 c -0.1129,-0.113041 -0.33904,-0.113041 -0.56527,-0.113041 h -7.91423 c -0.45224,0 -0.9045,0.452236 -0.9045,0.904464 v 5.652928 c 0,0.452231 0.45226,0.904469 0.9045,0.904469 z m 13.00188,-1.808935 h -12.0974 v -3.843991 h 6.67063 z"
       id="path21938"
       style="fill:#000000;fill-opacity:1;stroke-width:1.13059" />
    <path
       d="m 152.0554,31.820561 h 12.5495 c 0.45224,0 0.90447,-0.452233 0.90447,-0.904466 v -5.652926 c 0,-0.452233 -0.45223,-0.904466 -0.90447,-0.904466 h -12.5495 c -0.45222,0 -0.90446,0.452233 -0.90446,0.904466 v 5.652926 c 0,0.452233 0.33915,0.904466 0.90446,0.904466 z m 11.64504,-1.808935 h -10.74056 v -3.843991 h 10.74056 z"
       id="path21940"
       style="fill:#000000;fill-opacity:1;stroke-width:1.13059" />
    <path
       d="m 135.43578,31.820561 h 11.98423 c 0.45222,0 0.90446,-0.452233 0.90446,-0.904466 v -5.652926 c 0,-0.452233 -0.45224,-0.904466 -0.90446,-0.904466 h -11.98423 c -0.45224,0 -0.90448,0.452233 -0.90448,0.904466 v 5.652926 c 0,0.452233 0.33919,0.904466 0.90448,0.904466 z m 11.07975,-1.808935 h -10.1753 v -3.843991 h 10.1753 z"
       id="path21942"
       style="fill:#000000;fill-opacity:1;stroke-width:1.13059" />
    <path
       d="m 118.70307,31.820561 h 11.98423 c 0.45223,0 0.90447,-0.452233 0.90447,-0.904466 v -5.652926 c 0,-0.452233 -0.45224,-0.904466 -0.90447,-0.904466 h -11.98423 c -0.45222,0 -0.90445,0.452233 -0.90445,0.904466 v 5.652926 c 0,0.452233 0.45223,0.904466 0.90445,0.904466 z m 11.07975,-1.808935 h -10.17527 v -3.843991 h 10.17527 z"
       id="path21944"
       style="fill:#000000;fill-opacity:1;stroke-width:1.13059" />
    <path
       d="m 110.33674,35.212321 h 76.87999 c 0.45221,0 0.90445,-0.452234 0.90445,-0.90447 0,-0.452233 -0.45224,-0.90447 -0.90445,-0.90447 h -76.87999 c -0.45222,0 -0.90445,0.452237 -0.90445,0.90447 0,0.452236 0.45223,0.90447 0.90445,0.90447 z"
       id="path21948"
       style="fill:#000000;fill-opacity:1;stroke-width:1.13059" />
    <rect
       style="fill:#000000;fill-opacity:1;stroke:none;stroke-width:5.89968;stroke-linecap:round;stroke-linejoin:round;stroke-dasharray:none;stroke-opacity:1;paint-order:stroke fill markers;stop-color:#000000"
       id="rect23421-7"
       width="1.4641989"
       height="14.73318"
       x="-511.7182"
       y="26.70702"
       transform="scale(-1,1)" />
    <rect
       style="fill:#000000;fill-opacity:1;stroke:none;stroke-width:4.34718;stroke-linecap:round;stroke-linejoin:round;stroke-dasharray:none;stroke-opacity:1;paint-order:stroke fill markers;stop-color:#000000"
       id="rect21958"
       width="46.234592"
       height="1.8899757"
       x="-542.10333"
       y="40.772697"
       transform="scale(-1,1)"
       ry="0.62764543" />
    <text
       xml:space="preserve"
       style="font-size:10.2581px;line-height:1.25;font-family:'Lightdot 11x6';-inkscape-font-specification:'Lightdot 11x6';fill:#ffffff;fill-opacity:1;stroke-width:0.067853"
       x="-514.05109"
       y="25.274487"
       id="text23746"
       transform="scale(-1,1)"><tspan
         sodipodi:role="line"
         id="tspan23744"
         style="font-style:normal;font-variant:normal;font-weight:normal;font-stretch:normal;font-family:'Source Code Pro';-inkscape-font-specification:'Source Code Pro';fill:#ffffff;fill-opacity:1;stroke-width:0.067853"
         x="-514.05109"
         y="25.274487">B</tspan></text>
    <rect
       style="font-size:10.5833px;line-height:1.25;font-family:'Lightdot 11x6';-inkscape-font-specification:'Lightdot 11x6';fill:#000000;fill-opacity:1;stroke:none;stroke-width:5.89968;stroke-linecap:round;stroke-linejoin:round;stroke-dasharray:none;stroke-opacity:1;paint-order:stroke fill markers;stop-color:#000000"
       id="rect23421"
       width="1.4641989"
       height="14.73318"
       x="-9.2078943"
       y="28.210714"
       transform="scale(-1,1)" />
    <path
       id="rect23423"
       style="font-size:10.5833px;line-height:1.25;font-family:'Lightdot 11x6';-inkscape-font-specification:'Lightdot 11x6';fill:#000000;fill-opacity:1;stroke:none;stroke-width:5.3826;stroke-linecap:round;stroke-linejoin:round;stroke-dasharray:none;stroke-opacity:1;paint-order:stroke fill markers;stop-color:#000000"
       d="m 5.5275708,17.259077 c -1.151304,0 -2.078249,0.926943 -2.078249,2.078247 v 7.027284 c 0,1.151303 0.926945,2.078248 2.078249,2.078248 h 5.8969142 c 1.151304,0 2.077492,-0.926945 2.077492,-2.078248 v -7.027284 c 0,-1.151304 -0.926188,-2.078247 -2.077492,-2.078247 z m 2.437189,2.023199 h 1.022534 l 2.4040112,7.13738 H 10.466802 L 9.7813408,24.243377 h -2.589513 l -0.67415,2.176279 h -0.957682 z m 0.499957,0.739754 c -0.217597,0.826867 -0.457091,1.610538 -0.707329,2.404766 l -0.337074,1.08814 h 2.132542 l -0.337075,-1.08814 C 8.9655438,21.632568 8.7369278,20.848897 8.5084528,20.02203 Z" />
    <rect
       style="fill:#000000;fill-opacity:1;stroke:none;stroke-width:4.34718;stroke-linecap:round;stroke-linejoin:round;stroke-dasharray:none;stroke-opacity:1;paint-order:stroke fill markers;stop-color:#000000"
       id="rect23795"
       width="46.234592"
       height="1.8899757"
       x="-18.983009"
       y="40.772697"
       transform="scale(-1,1)"
       ry="0.65550023" />
    <g
       aria-label="B"
       id="text23869"
       style="font-size:7.60659px;line-height:1.25;font-family:'Lightdot 11x6';-inkscape-font-specification:'Lightdot 11x6';fill:#ffffff;stroke-width:0.190165"
       transform="matrix(1.459236,0,0,1.459236,-27.326989,6.7734623)" />
    <path
       id="rect23865"
       style="font-size:10.5833px;line-height:1.25;font-family:'Lightdot 11x6';-inkscape-font-specification:'Lightdot 11x6';stroke-width:5.3826;stroke-linecap:round;stroke-linejoin:round;paint-order:stroke fill markers;stop-color:#000000"
       d="m 508.03876,17.484814 c -1.15129,0 -2.07824,0.926943 -2.07824,2.078246 v 7.027275 c 0,1.151305 0.92695,2.078249 2.07824,2.078249 h 5.89616 c 1.15129,0 2.07826,-0.926944 2.07826,-2.078249 V 19.56306 c 0,-1.151303 -0.92697,-2.078246 -2.07826,-2.078246 z m 0.59874,1.907825 h 2.06467 c 1.48737,0 2.49753,0.499384 2.49753,1.775858 0,0.721483 -0.41089,1.36534 -1.27666,1.587337 v 0.04449 c 1.06557,0.166497 1.68762,0.743699 1.68762,1.742681 0,1.431874 -1.11015,2.131033 -2.74183,2.131033 h -2.23133 z m 0.92149,0.776703 v 2.287121 h 0.98785 c 1.24318,0 1.74268,-0.400015 1.74268,-1.210296 0,-0.788083 -0.5771,-1.076825 -1.69819,-1.076825 z m 0,3.063825 v 2.664168 h 1.17637 c 1.24316,0 1.96513,-0.410938 1.96513,-1.39882 0,-0.899082 -0.68867,-1.265348 -1.96513,-1.265348 z" />
    <path
       d="m 198.53224,35.875872 -1.1132,1.366223 -1.64815,-1.445738 a 0.72286972,0.72286972 0 0 0 -0.91807,0 l -1.50356,1.178275 a 0.72286972,0.72286972 0 0 0 -0.27468,0.498782 l -0.80961,8.25517 a 0.72286972,0.72286972 0 0 0 0.18797,0.556612 0.72286972,0.72286972 0 0 0 0.53492,0.23854 h 8.67444 a 0.72286972,0.72286972 0 0 0 0.53492,-0.23854 0.72286972,0.72286972 0 0 0 0.18797,-0.556612 l -0.82406,-8.399745 a 0.72286972,0.72286972 0 0 0 -0.33976,-0.54938 l -1.72765,-1.098763 a 0.72286972,0.72286972 0 0 0 -0.96143,0.195182 z m 2.33488,9.202129 h -7.08413 l 0.72286,-7.156407 0.79517,-0.628899 1.75656,1.525257 a 0.66504013,0.66504013 0 0 0 0.53494,0.173488 0.72286972,0.72286972 0 0 0 0.49878,-0.260233 l 1.18549,-1.445741 0.90358,0.549384 z"
       id="path1"
       style="stroke-width:0.722869" />
    <path
       id="path2"
       style="stroke-width:0.759657"
       d="m 176.66402,0.75476551 a 3.9654163,3.9654163 0 0 0 -0.91309,0.1609234 3.9654163,3.9654163 0 0 0 -2.01087,1.39003759 3.8438708,3.8438708 0 0 0 -0.76518,1.8445676 3.5855871,3.5855871 0 0 0 -2.60167,1.3954165 3.5324111,3.5324111 0 0 0 -0.70285,1.7195047 3.9350298,3.9350298 0 0 0 -3.43229,4.4547547 3.5627973,3.5627973 0 0 0 -2.12966,4.010534 3.950223,3.950223 0 0 0 -1.90464,5.447638 h 1.87729 a 2.4233099,2.4233099 0 0 1 1.1323,-4.182664 0.75965829,0.75965829 0 0 0 0.53253,-0.401636 0.75965829,0.75965829 0 0 0 0.0148,-0.66521 2.058674,2.058674 0 0 1 1.52047,-2.902448 0.75965829,0.75965829 0 0 0 0.59573,-1.006332 2.4233099,2.4233099 0 0 1 2.51516,-3.2615007 0.75965829,0.75965829 0 0 0 0.60022,-0.2281616 0.75965829,0.75965829 0 0 0 0.21785,-0.609178 2.058674,2.058674 0 0 1 2.40891,-2.2399281 0.75965829,0.75965829 0 0 0 0.88531,-0.8019275 2.3549406,2.3549406 0 0 1 0.48726,-1.6276124 2.4385031,2.4385031 0 0 1 1.60923,-0.9373004 2.4385031,2.4385031 0 0 1 1.80243,0.4729086 2.3625373,2.3625373 0 0 1 0.82837,1.1659102 0.75965829,0.75965829 0 0 0 0.58139,0.5007003 0.75965829,0.75965829 0 0 0 0.72617,-0.2577464 2.7727527,2.7727527 0 0 1 4.85326,1.2959041 0.75965829,0.75965829 0 0 0 1.10988,0.5778002 2.0814637,2.0814637 0 0 1 2.64917,3.0691991 l -0.0448,0.054687 a 0.80523779,0.80523779 0 0 0 -0.1291,0.6235222 0.82802753,0.82802753 0 0 0 0.38999,0.5177344 0.98755578,0.98755578 0 0 1 0.19005,0.11296 1.6864414,1.6864414 0 0 1 0.66163,1.142153 1.7092311,1.7092311 0 0 1 -0.34023,1.277974 1.6864414,1.6864414 0 0 1 -0.8082,0.58049 0.75965829,0.75965829 0 0 0 -0.45587,0.43391 0.75965829,0.75965829 0 0 0 0.0341,0.633832 2.4233099,2.4233099 0 0 1 -0.25192,2.535328 2.4612928,2.4612928 0 0 1 -2.03059,0.95523 l -1.77105,-6.831399 a 0.75965829,0.75965829 0 0 0 -0.86827,-0.55763 l -1.99653,0.271643 a 0.75965829,0.75965829 0 0 0 -0.63742,0.766516 l 0.11924,5.099792 -4.10601,-2.538018 a 0.75965829,0.75965829 0 0 0 -1.00275,0.175268 l -1.71861,2.259203 a 0.75965829,0.75965829 0 0 0 0.0861,1.018435 l 3.67479,3.382977 -3.87874,1.446518 1.57651,0.971816 3.98722,-1.462655 a 0.75965829,0.75965829 0 0 0 0.4877,-0.563905 0.75965829,0.75965829 0 0 0 -0.23488,-0.730206 l -4.05177,-3.772063 0.8853,-1.157393 4.71026,2.910069 a 0.75965829,0.75965829 0 0 0 1.15649,-0.664314 l -0.16003,-5.733175 0.6428,-0.112064 2.30045,8.760239 a 0.75965829,0.75965829 0 0 0 0.33439,0.458117 l 5.49381,3.421078 -0.6791,0.526699 a 0.75965829,0.75965829 0 0 0 -0.28375,0.713622 l 0.21426,1.226424 -1.21925,0.212473 a 0.75965829,0.75965829 0 0 0 -0.52939,0.417774 l -0.33888,0.706897 -4.77705,-4.44041 a 0.75965829,0.75965829 0 0 0 -0.52939,-0.201266 l -6.41945,0.09324 2.44434,1.508824 3.68196,-0.05558 5.31182,4.93349 a 0.75965829,0.75965829 0 0 0 0.64145,0.189163 0.75965829,0.75965829 0 0 0 0.54463,-0.419117 l 0.61545,-1.286491 1.57202,-0.313779 a 0.75965829,0.75965829 0 0 0 0.61771,-0.879027 l -0.26134,-1.496722 1.18832,-0.924301 a 0.75965829,0.75965829 0 0 0 -0.0713,-1.245251 l -6.16305,-3.812854 -0.19858,-0.781756 a 3.9274333,3.9274333 0 0 0 3.48608,-5.035243 3.2513376,3.2513376 0 0 0 0.45318,-5.0912767 3.5931838,3.5931838 0 0 0 -4.06342,-5.0294165 4.2388933,4.2388933 0 0 0 -1.39676,-1.8149829 4.2996658,4.2996658 0 0 0 -5.10338,-0.080686 4.1629273,4.1629273 0 0 0 -0.8499,-0.8920267 3.9654163,3.9654163 0 0 0 -2.6187,-0.79923799 z m 6.47011,27.17857249 0.009,0.04527 c 0.0137,-0.0048 0.0293,-0.009 0.0439,-0.01389 z" />
    <path
       d="m 200.37033,24.729149 -1.75153,1.751525 a 0.87576192,0.87576192 0 0 0 0,1.24358 0.87576192,0.87576192 0 0 0 1.24358,0 l 1.75151,-1.751525 a 0.87934522,0.87934522 0 0 0 -1.24356,-1.24358 z"
       id="path3-6"
       style="stroke-width:0.875761" />
    <path
       d="m 203.22531,35.010593 a 0.87576192,0.87576192 0 0 0 0.44661,-1.637676 l -2.24194,-1.296126 a 0.87576192,0.87576192 0 0 0 -0.87575,1.506309 l 2.2332,1.304888 a 0.87576192,0.87576192 0 0 0 0.43788,0.122605 z"
       id="path4"
       style="stroke-width:0.875761" />
    <path
       d="m 204.49514,29.055414 a 0.87576192,0.87576192 0 0 0 -1.02463,-0.700611 l -2.14562,0.411608 a 0.8793016,0.8793016 0 0 0 0.15756,1.751525 h 0.16649 l 2.15436,-0.411608 a 0.87576192,0.87576192 0 0 0 0.69184,-1.050914 z"
       id="path5"
       style="stroke-width:0.875761" />
  </g>
</svg>
