<?xml version="1.0" encoding="UTF-8" standalone="no"?>
<!-- Created with Inkscape (http://www.inkscape.org/) -->

<svg
   width="2048"
   height="384"
   viewBox="0 0 541.86667 101.6"
   version="1.1"
   id="svg32680"
   sodipodi:docname="delay4.svg"
   inkscape:version="1.3 (0e150ed6c4, 2023-07-21)"
   xmlns:inkscape="http://www.inkscape.org/namespaces/inkscape"
   xmlns:sodipodi="http://sodipodi.sourceforge.net/DTD/sodipodi-0.dtd"
   xmlns="http://www.w3.org/2000/svg"
   xmlns:svg="http://www.w3.org/2000/svg">
  <sodipodi:namedview
     id="namedview1"
     pagecolor="#ffffff"
     bordercolor="#cccccc"
     borderopacity="1"
     inkscape:showpageshadow="0"
     inkscape:pageopacity="1"
     inkscape:pagecheckerboard="0"
     inkscape:deskcolor="#d1d1d1"
     inkscape:zoom="0.40010611"
     inkscape:cx="1057.2195"
     inkscape:cy="158.7079"
     inkscape:window-width="1440"
     inkscape:window-height="831"
     inkscape:window-x="0"
     inkscape:window-y="0"
     inkscape:window-maximized="1"
     inkscape:current-layer="svg32680" />
  <defs
     id="defs32677" />
  <g
     id="layer1">
    <path
       id="rect8928"
       style="fill:#000000;fill-opacity:1;stroke-width:7.0806;stroke-linecap:round;stroke-linejoin:round;paint-order:stroke fill markers;stop-color:#000000"
       d="m 542.12268,42.047868 v 1.479507 H -27.246064 v -1.479507 z" />
    <path
       d="m 287.79641,20.030311 c -0.32081,-0.481204 -0.80201,-0.561405 -1.12282,-0.561405 l -0.1604,-0.401003 c -0.0402,-0.120293 -0.0402,-0.200503 0,-0.320803 0.0402,-0.120294 0.12034,-0.200502 0.24061,-0.240603 l 2.88723,-1.122808 c 0.3208,-0.120309 0.24059,-0.601506 -0.12034,-0.601506 h -3.60904 c -0.52129,0 -1.0827,0.200502 -1.44362,0.561405 -0.56138,0.561404 -0.76189,1.323312 -0.52128,2.045118 l -0.0802,-0.0401 c -0.36091,-0.240602 -0.76191,-0.360903 -1.203,-0.360903 h -2.16543 l 1.36341,1.323312 -2.24561,0.401003 h -22.33591 c -1.44361,0 -2.60652,1.16291 -2.60652,2.606523 v 9.704285 h 2.28573 v -9.30328 c 0,-0.200502 0.2005,-0.521306 0.56139,-0.521306 v 2.887225 l 0.56142,3.769433 -0.56142,3.248128 0.56142,8.100272 h 2.20551 v -5.854651 l 1.44362,5.854651 h 2.16542 l -0.80201,-6.255654 1.96492,-2.766925 2.24562,0.481205 c 1.00251,0.240602 2.04511,0.320802 3.08773,0.320802 v 0 h 2.84712 l -1.04262,8.180471 h 2.16542 l 1.56392,-6.616558 0.44111,0.882209 0.6015,5.77445 h 2.16543 v -8.300772 c 1.203,-0.280704 2.20551,-1.00251 2.84711,-2.045118 l 2.64663,-4.330838 1.92482,0.481204 h 1.76441 l 0.5614,0.160401 c 0.6817,0.240602 1.44362,0 1.88472,-0.561404 0.4812,-0.641606 0.4812,-1.483714 0,-2.125319 z m -25.58403,14.716829 0.72181,5.654149 h -0.56141 l -1.60401,-6.616558 1.64411,-2.125319 1.72432,0.360903 z m 11.5088,5.614049 h -0.56141 l 0.92232,-7.338364 h 1.0827 l 0.1604,0.320801 z m 16.40105,-14.315825 c -0.24061,0.280701 -0.60152,0.401003 -0.96241,0.280701 l -0.72181,-0.2005 h -1.76442 l -2.44613,-0.601505 -3.00751,4.852142 c -0.56141,0.922307 -1.52382,1.563913 -2.60653,1.724314 l -0.36091,0.0401 v 8.180472 h -0.56138 l -0.56142,-5.172946 -1.48372,-3.047625 h -5.29324 c 0,0 0,0 0,0 -0.96241,0 -1.96492,-0.120294 -2.92733,-0.320804 l -5.41354,-1.162909 -2.60651,3.408529 v 6.295755 h -0.56142 l -0.52131,-7.218063 0.56142,-3.288229 -0.56142,-3.809532 v -3.809533 h -0.7619 c -0.8421,0 -1.52381,0.681706 -1.52381,1.523814 v 8.461173 h -0.5213 v -8.862176 c 0,-0.962408 0.80199,-1.764415 1.7644,-1.764415 h 3.76945 c -0.12034,0.160401 -0.2005,0.320802 -0.2005,0.521304 v 1.203011 c 0,0.481204 0.40099,0.842107 0.8421,0.842107 h 0.60151 c 0.4812,0 0.8421,0.401003 0.8421,0.842108 0,0.681706 0.5614,1.20301 1.203,1.20301 h 3.80954 c 0.6817,0 1.20301,-0.561406 1.20301,-1.20301 v -1.12281 c 0,-0.481204 0.40102,-0.842107 0.84211,-0.842107 0.4812,0 0.84211,-0.401005 0.84211,-0.842107 v -0.120294 c 0,-0.200502 -0.0802,-0.401004 -0.20051,-0.521306 h 3.28823 v 0.962409 c 0,0.922308 0.76191,1.684215 1.68421,1.684215 h 1.56393 c 0.32081,0 0.5614,0.240602 0.5614,0.561405 0,0.601505 0.48121,1.12281 1.12281,1.12281 h 0.2406 c 0.76191,0 1.36341,-0.601506 1.36341,-1.363412 v -0.481204 c 0,-0.200503 0.0802,-0.360904 0.2406,-0.481204 l 1.08271,-0.721807 c 0.36091,-0.240602 0.52131,-0.681707 0.36091,-1.08271 l -0.20051,-0.641604 1.44361,-0.240602 -1.0827,-1.04261 h 0.0802 c 0.2807,0 0.5213,0.0802 0.76191,0.200502 l 1.08271,0.681705 0.88221,-0.160401 -0.56141,-1.283211 c -0.1604,-0.360903 -0.12034,-0.761906 0.0802,-1.08271 0.2005,-0.320802 0.56141,-0.521304 0.96241,-0.521304 h 0.80201 l -0.2406,0.0802 c -0.32081,0.120294 -0.56141,0.360903 -0.72181,0.681705 -0.16041,0.320803 -0.12034,0.681706 0,1.00251 l 0.4411,0.962408 0.32079,-0.0802 c 0.40102,-0.0802 0.48121,0.0401 0.60152,0.160401 l 3.00752,4.451139 0.0402,0.0401 c 0.3208,0.360903 0.3208,0.802006 0.0802,1.122809 z m -13.95493,3.368429 c -0.1604,0.561404 -0.6817,0.922307 -1.24311,0.922307 h -0.6015 c -0.16041,0 -0.3208,0.0401 -0.44112,0.120294 l -1.04259,0.721806 c -0.4411,0.320803 -1.04262,0.200502 -1.40351,-0.200501 -0.32081,-0.360903 -0.32081,-0.922309 0,-1.323312 l 0.28069,-0.401004 c 0.20051,-0.240602 0.2406,-0.601504 0.0802,-0.882207 l -0.16039,-0.280702 c -0.24061,-0.401003 -0.0802,-0.922308 0.36089,-1.122809 l 0.56141,-0.280704 c 0.401,-0.200501 0.8822,-0.0401 1.0827,0.320804 0.12034,0.200502 0.28071,0.360903 0.5213,0.401003 l 1.16292,0.280703 c 0.60151,0.280702 1.04261,1.002508 0.84211,1.724314 z"
       id="path1"
       style="stroke-width:0.401003" />
    <rect
       style="fill:#000000;fill-opacity:1;stroke:none;stroke-width:10.4307;stroke-linecap:round;stroke-linejoin:round;stroke-dasharray:none;stroke-opacity:1;paint-order:stroke fill markers;stop-color:#000000"
       id="rect10797"
       width="2.2165875"
       height="40.456127"
       x="-362.70746"
       y="1.8622073"
       ry="0.81373572"
       transform="scale(-1,1)" />
    <path
       id="rect17963"
       style="fill:#000000;fill-opacity:1;stroke:none;stroke-width:12.173;stroke-linecap:round;stroke-linejoin:round;stroke-dasharray:none;stroke-opacity:1;paint-order:stroke fill markers;stop-color:#000000"
       d="m 361.39015,5.7205343 v 6.3061307 h -5.06608 a 5.1058646,5.1058646 0 0 0 0.008,-0.245837 5.1058646,5.1058646 0 0 0 -5.05517,-5.1049637 v -0.95533 z" />
    <path
       id="path18774"
       style="fill:#000000;fill-opacity:1;stroke:none;stroke-width:12.173;stroke-linecap:round;stroke-linejoin:round;stroke-dasharray:none;stroke-opacity:1;paint-order:stroke fill markers;stop-color:#000000"
       d="m 361.39015,15.280095 v 6.306134 h -5.06608 a 5.1058646,5.1058646 0 0 0 0.008,-0.245837 5.1058646,5.1058646 0 0 0 -5.05517,-5.104968 v -0.955329 z" />
    <rect
       style="fill:#000000;fill-opacity:1;stroke:none;stroke-width:12.173;stroke-linecap:round;stroke-linejoin:round;stroke-dasharray:none;stroke-opacity:1;paint-order:stroke fill markers;stop-color:#000000"
       id="rect19502"
       width="1.7013611"
       height="8.5879192"
       x="-361.06879"
       y="4.5581775"
       transform="scale(-1,1)" />
    <rect
       style="fill:#000000;fill-opacity:1;stroke:none;stroke-width:12.173;stroke-linecap:round;stroke-linejoin:round;stroke-dasharray:none;stroke-opacity:1;paint-order:stroke fill markers;stop-color:#000000"
       id="rect19504"
       width="1.7013611"
       height="8.5879192"
       x="-361.06879"
       y="14.11774"
       transform="scale(-1,1)" />
    <path
       d="m 110.43613,31.820561 h 4.0701 c 0.45223,0 0.90447,-0.452233 0.90447,-0.904466 v -5.652926 c 0,-0.452233 -0.45224,-0.904466 -0.90447,-0.904466 h -4.0701 c -0.45224,0 -0.90446,0.452233 -0.90446,0.904466 0,0.452233 0.45222,0.904466 0.90446,0.904466 h 3.16562 v 3.843991 h -3.16562 c -0.45224,0 -0.90446,0.452233 -0.90446,0.904469 0,0.452233 0.45222,0.904466 0.90446,0.904466 z"
       id="path14"
       style="fill:#000000;fill-opacity:1;stroke-width:1.13059" />
    <path
       d="m 110.33674,40.865249 h 74.61884 c 1.69588,0 3.1656,-0.565296 4.0701,-1.695879 0.67836,-0.791411 0.90448,-1.808934 0.79138,-2.826461 -0.33901,-2.148115 -2.37421,-4.974581 -4.63538,-6.557398 l -8.47933,-5.992102 c -2.14812,-1.582825 -6.10522,-2.826466 -8.70569,-2.826466 h -57.65992 c -0.45222,0 -0.90445,0.452234 -0.90445,0.90447 0,0.452233 0.45223,0.90447 0.90445,0.90447 h 57.65992 c 2.2612,0 5.76614,1.130584 7.68814,2.487286 l 8.47935,5.992099 c 1.80891,1.356706 3.61789,3.843996 3.844,5.426812 0.1129,0.452236 0,0.90447 -0.33904,1.356706 -0.5653,0.678351 -1.58281,1.017527 -2.71342,1.017527 h -74.61893 c -0.45221,0 -0.90445,0.452232 -0.90445,0.904466 0,0.452236 0.45224,0.90447 0.90445,0.90447 z"
       id="path21936"
       style="fill:#000000;fill-opacity:1;stroke-width:1.13059" />
    <path
       d="m 169.12724,31.820561 h 15.82834 c 0.33902,0 0.79136,-0.226114 0.90445,-0.67835 0.1129,-0.339154 0,-0.791409 -0.33904,-1.017527 l -7.91408,-5.652924 c -0.1129,-0.113041 -0.33904,-0.113041 -0.56527,-0.113041 h -7.91423 c -0.45224,0 -0.9045,0.452236 -0.9045,0.904464 v 5.652928 c 0,0.452231 0.45226,0.904469 0.9045,0.904469 z m 13.00188,-1.808935 h -12.0974 v -3.843991 h 6.67063 z"
       id="path21938"
       style="fill:#000000;fill-opacity:1;stroke-width:1.13059" />
    <path
       d="m 152.0554,31.820561 h 12.5495 c 0.45224,0 0.90447,-0.452233 0.90447,-0.904466 v -5.652926 c 0,-0.452233 -0.45223,-0.904466 -0.90447,-0.904466 h -12.5495 c -0.45222,0 -0.90446,0.452233 -0.90446,0.904466 v 5.652926 c 0,0.452233 0.33915,0.904466 0.90446,0.904466 z m 11.64504,-1.808935 h -10.74056 v -3.843991 h 10.74056 z"
       id="path21940"
       style="fill:#000000;fill-opacity:1;stroke-width:1.13059" />
    <path
       d="m 135.43578,31.820561 h 11.98423 c 0.45222,0 0.90446,-0.452233 0.90446,-0.904466 v -5.652926 c 0,-0.452233 -0.45224,-0.904466 -0.90446,-0.904466 h -11.98423 c -0.45224,0 -0.90448,0.452233 -0.90448,0.904466 v 5.652926 c 0,0.452233 0.33919,0.904466 0.90448,0.904466 z m 11.07975,-1.808935 h -10.1753 v -3.843991 h 10.1753 z"
       id="path21942"
       style="fill:#000000;fill-opacity:1;stroke-width:1.13059" />
    <path
       d="m 118.70307,31.820561 h 11.98423 c 0.45223,0 0.90447,-0.452233 0.90447,-0.904466 v -5.652926 c 0,-0.452233 -0.45224,-0.904466 -0.90447,-0.904466 h -11.98423 c -0.45222,0 -0.90445,0.452233 -0.90445,0.904466 v 5.652926 c 0,0.452233 0.45223,0.904466 0.90445,0.904466 z m 11.07975,-1.808935 h -10.17527 v -3.843991 h 10.17527 z"
       id="path21944"
       style="fill:#000000;fill-opacity:1;stroke-width:1.13059" />
    <path
       d="m 110.33674,35.212321 h 76.87999 c 0.45221,0 0.90445,-0.452234 0.90445,-0.90447 0,-0.452233 -0.45224,-0.90447 -0.90445,-0.90447 h -76.87999 c -0.45222,0 -0.90445,0.452237 -0.90445,0.90447 0,0.452236 0.45223,0.90447 0.90445,0.90447 z"
       id="path21948"
       style="fill:#000000;fill-opacity:1;stroke-width:1.13059" />
    <rect
       style="fill:#000000;fill-opacity:1;stroke:none;stroke-width:5.89968;stroke-linecap:round;stroke-linejoin:round;stroke-dasharray:none;stroke-opacity:1;paint-order:stroke fill markers;stop-color:#000000"
       id="rect23421-7"
       width="1.4641989"
       height="14.73318"
       x="-511.7182"
       y="26.70702"
       transform="scale(-1,1)" />
    <rect
       style="fill:#000000;fill-opacity:1;stroke:none;stroke-width:4.34718;stroke-linecap:round;stroke-linejoin:round;stroke-dasharray:none;stroke-opacity:1;paint-order:stroke fill markers;stop-color:#000000"
       id="rect21958"
       width="46.234592"
       height="1.8899757"
       x="-542.10333"
       y="40.772697"
       transform="scale(-1,1)"
       ry="0.62764543" />
    <text
       xml:space="preserve"
       style="font-size:10.2581px;line-height:1.25;font-family:'Lightdot 11x6';-inkscape-font-specification:'Lightdot 11x6';fill:#ffffff;fill-opacity:1;stroke-width:0.067853"
       x="-514.05109"
       y="25.274487"
       id="text23746"
       transform="scale(-1,1)"><tspan
         id="tspan23744"
         style="font-style:normal;font-variant:normal;font-weight:normal;font-stretch:normal;font-family:'Source Code Pro';-inkscape-font-specification:'Source Code Pro';fill:#ffffff;fill-opacity:1;stroke-width:0.067853"
         x="-514.05109"
         y="25.274487">B</tspan></text>
    <rect
       style="font-size:10.5833px;line-height:1.25;font-family:'Lightdot 11x6';-inkscape-font-specification:'Lightdot 11x6';fill:#000000;fill-opacity:1;stroke:none;stroke-width:5.89968;stroke-linecap:round;stroke-linejoin:round;stroke-dasharray:none;stroke-opacity:1;paint-order:stroke fill markers;stop-color:#000000"
       id="rect23421"
       width="1.4641989"
       height="14.73318"
       x="-9.2078943"
       y="28.210714"
       transform="scale(-1,1)" />
    <path
       id="rect23423"
       style="font-size:10.5833px;line-height:1.25;font-family:'Lightdot 11x6';-inkscape-font-specification:'Lightdot 11x6';fill:#000000;fill-opacity:1;stroke:none;stroke-width:5.3826;stroke-linecap:round;stroke-linejoin:round;stroke-dasharray:none;stroke-opacity:1;paint-order:stroke fill markers;stop-color:#000000"
       d="m 5.5275708,17.259077 c -1.151304,0 -2.078249,0.926943 -2.078249,2.078247 v 7.027284 c 0,1.151303 0.926945,2.078248 2.078249,2.078248 h 5.8969142 c 1.151304,0 2.077492,-0.926945 2.077492,-2.078248 v -7.027284 c 0,-1.151304 -0.926188,-2.078247 -2.077492,-2.078247 z m 2.437189,2.023199 h 1.022534 l 2.4040112,7.13738 H 10.466802 L 9.7813408,24.243377 h -2.589513 l -0.67415,2.176279 h -0.957682 z m 0.499957,0.739754 c -0.217597,0.826867 -0.457091,1.610538 -0.707329,2.404766 l -0.337074,1.08814 h 2.132542 l -0.337075,-1.08814 C 8.9655438,21.632568 8.7369278,20.848897 8.5084528,20.02203 Z" />
    <rect
       style="fill:#000000;fill-opacity:1;stroke:none;stroke-width:4.34718;stroke-linecap:round;stroke-linejoin:round;stroke-dasharray:none;stroke-opacity:1;paint-order:stroke fill markers;stop-color:#000000"
       id="rect23795"
       width="46.234592"
       height="1.8899757"
       x="-18.983009"
       y="40.772697"
       transform="scale(-1,1)"
       ry="0.65550023" />
    <g
       aria-label="B"
       id="text23869"
       style="font-size:7.60659px;line-height:1.25;font-family:'Lightdot 11x6';-inkscape-font-specification:'Lightdot 11x6';fill:#ffffff;stroke-width:0.190165"
       transform="matrix(1.459236,0,0,1.459236,-27.326989,6.7734623)" />
    <path
       id="rect23865"
       style="font-size:10.5833px;line-height:1.25;font-family:'Lightdot 11x6';-inkscape-font-specification:'Lightdot 11x6';stroke-width:5.3826;stroke-linecap:round;stroke-linejoin:round;paint-order:stroke fill markers;stop-color:#000000"
       d="m 508.03876,17.484814 c -1.15129,0 -2.07824,0.926943 -2.07824,2.078246 v 7.027275 c 0,1.151305 0.92695,2.078249 2.07824,2.078249 h 5.89616 c 1.15129,0 2.07826,-0.926944 2.07826,-2.078249 V 19.56306 c 0,-1.151303 -0.92697,-2.078246 -2.07826,-2.078246 z m 0.59874,1.907825 h 2.06467 c 1.48737,0 2.49753,0.499384 2.49753,1.775858 0,0.721483 -0.41089,1.36534 -1.27666,1.587337 v 0.04449 c 1.06557,0.166497 1.68762,0.743699 1.68762,1.742681 0,1.431874 -1.11015,2.131033 -2.74183,2.131033 h -2.23133 z m 0.92149,0.776703 v 2.287121 h 0.98785 c 1.24318,0 1.74268,-0.400015 1.74268,-1.210296 0,-0.788083 -0.5771,-1.076825 -1.69819,-1.076825 z m 0,3.063825 v 2.664168 h 1.17637 c 1.24316,0 1.96513,-0.410938 1.96513,-1.39882 0,-0.899082 -0.68867,-1.265348 -1.96513,-1.265348 z" />
    <path
       d="m 330.12977,20.030311 c -0.32081,-0.481204 -0.80201,-0.561405 -1.12282,-0.561405 l -0.1604,-0.401003 c -0.0402,-0.120293 -0.0402,-0.200503 0,-0.320803 0.0402,-0.120294 0.12034,-0.200502 0.24061,-0.240603 l 2.88723,-1.122808 c 0.3208,-0.120309 0.24059,-0.601506 -0.12034,-0.601506 h -3.60904 c -0.52129,0 -1.0827,0.200502 -1.44362,0.561405 -0.56138,0.561404 -0.76189,1.323312 -0.52128,2.045118 l -0.0802,-0.0401 c -0.36091,-0.240602 -0.76191,-0.360903 -1.203,-0.360903 h -2.16543 l 1.36341,1.323312 -2.24561,0.401003 h -22.33591 c -1.44361,0 -2.60652,1.16291 -2.60652,2.606523 v 9.704285 h 2.28573 v -9.30328 c 0,-0.200502 0.2005,-0.521306 0.56139,-0.521306 v 2.887225 l 0.56142,3.769433 -0.56142,3.248128 0.56142,8.100272 h 2.20551 v -5.854651 l 1.44362,5.854651 h 2.16542 l -0.80201,-6.255654 1.96492,-2.766925 2.24562,0.481205 c 1.00251,0.240602 2.04511,0.320802 3.08773,0.320802 v 0 h 2.84712 l -1.04262,8.180471 h 2.16542 l 1.56392,-6.616558 0.44111,0.882209 0.6015,5.77445 h 2.16543 v -8.300772 c 1.203,-0.280704 2.20551,-1.00251 2.84711,-2.045118 l 2.64663,-4.330838 1.92482,0.481204 h 1.76441 l 0.5614,0.160401 c 0.6817,0.240602 1.44362,0 1.88472,-0.561404 0.4812,-0.641606 0.4812,-1.483714 0,-2.125319 z m -25.58403,14.716829 0.72181,5.654149 h -0.56141 l -1.60401,-6.616558 1.64411,-2.125319 1.72432,0.360903 z m 11.5088,5.614049 h -0.56141 l 0.92232,-7.338364 h 1.0827 l 0.1604,0.320801 z m 16.40105,-14.315825 c -0.24061,0.280701 -0.60152,0.401003 -0.96241,0.280701 l -0.72181,-0.2005 h -1.76442 l -2.44613,-0.601505 -3.00751,4.852142 c -0.56141,0.922307 -1.52382,1.563913 -2.60653,1.724314 l -0.36091,0.0401 v 8.180472 h -0.56138 l -0.56142,-5.172946 -1.48372,-3.047625 h -5.29324 c 0,0 0,0 0,0 -0.96241,0 -1.96492,-0.120294 -2.92733,-0.320804 l -5.41354,-1.162909 -2.60651,3.408529 v 6.295755 h -0.56142 l -0.52131,-7.218063 0.56142,-3.288229 -0.56142,-3.809532 v -3.809533 h -0.7619 c -0.8421,0 -1.52381,0.681706 -1.52381,1.523814 v 8.461173 h -0.5213 v -8.862176 c 0,-0.962408 0.80199,-1.764415 1.7644,-1.764415 h 3.76945 c -0.12034,0.160401 -0.2005,0.320802 -0.2005,0.521304 v 1.203011 c 0,0.481204 0.40099,0.842107 0.8421,0.842107 h 0.60151 c 0.4812,0 0.8421,0.401003 0.8421,0.842108 0,0.681706 0.5614,1.20301 1.203,1.20301 h 3.80954 c 0.6817,0 1.20301,-0.561406 1.20301,-1.20301 v -1.12281 c 0,-0.481204 0.40102,-0.842107 0.84211,-0.842107 0.4812,0 0.84211,-0.401005 0.84211,-0.842107 v -0.120294 c 0,-0.200502 -0.0802,-0.401004 -0.20051,-0.521306 h 3.28823 v 0.962409 c 0,0.922308 0.76191,1.684215 1.68421,1.684215 h 1.56393 c 0.32081,0 0.5614,0.240602 0.5614,0.561405 0,0.601505 0.48121,1.12281 1.12281,1.12281 h 0.2406 c 0.76191,0 1.36341,-0.601506 1.36341,-1.363412 v -0.481204 c 0,-0.200503 0.0802,-0.360904 0.2406,-0.481204 l 1.08271,-0.721807 c 0.36091,-0.240602 0.52131,-0.681707 0.36091,-1.08271 l -0.20051,-0.641604 1.44361,-0.240602 -1.0827,-1.04261 h 0.0802 c 0.2807,0 0.5213,0.0802 0.76191,0.200502 l 1.08271,0.681705 0.88221,-0.160401 -0.56141,-1.283211 c -0.1604,-0.360903 -0.12034,-0.761906 0.0802,-1.08271 0.2005,-0.320802 0.56141,-0.521304 0.96241,-0.521304 h 0.80201 l -0.2406,0.0802 c -0.32081,0.120294 -0.56141,0.360903 -0.72181,0.681705 -0.16041,0.320803 -0.12034,0.681706 0,1.00251 l 0.4411,0.962408 0.32079,-0.0802 c 0.40102,-0.0802 0.48121,0.0401 0.60152,0.160401 l 3.00752,4.451139 0.0402,0.0401 c 0.3208,0.360903 0.3208,0.802006 0.0802,1.122809 z m -13.95493,3.368429 c -0.1604,0.561404 -0.6817,0.922307 -1.24311,0.922307 h -0.6015 c -0.16041,0 -0.3208,0.0401 -0.44112,0.120294 l -1.04259,0.721806 c -0.4411,0.320803 -1.04262,0.200502 -1.40351,-0.200501 -0.32081,-0.360903 -0.32081,-0.922309 0,-1.323312 l 0.28069,-0.401004 c 0.20051,-0.240602 0.2406,-0.601504 0.0802,-0.882207 l -0.16039,-0.280702 c -0.24061,-0.401003 -0.0802,-0.922308 0.36089,-1.122809 l 0.56141,-0.280704 c 0.401,-0.200501 0.8822,-0.0401 1.0827,0.320804 0.12034,0.200502 0.28071,0.360903 0.5213,0.401003 l 1.16292,0.280703 c 0.60151,0.280702 1.04261,1.002508 0.84211,1.724314 z"
       id="path12"
       style="stroke-width:0.401003" />
  </g>
</svg>
