<?xml version="1.0" encoding="UTF-8" standalone="no"?>
<svg
   version="1.1"
   x="0px"
   y="0px"
   viewBox="0 0 1024 128"
   enable-background="new 0 0 100 100"
   xml:space="preserve"
   id="svg22"
   sodipodi:docname="train_line_inv.svg"
   width="1024"
   height="128"
   inkscape:version="1.2.2 (b0a8486541, 2022-12-01)"
   xmlns:inkscape="http://www.inkscape.org/namespaces/inkscape"
   xmlns:sodipodi="http://sodipodi.sourceforge.net/DTD/sodipodi-0.dtd"
   xmlns="http://www.w3.org/2000/svg"
   xmlns:svg="http://www.w3.org/2000/svg"><defs
     id="defs26" /><sodipodi:namedview
     id="namedview24"
     pagecolor="#ffffff"
     bordercolor="#cccccc"
     borderopacity="1"
     inkscape:showpageshadow="0"
     inkscape:pageopacity="1"
     inkscape:pagecheckerboard="0"
     inkscape:deskcolor="#d1d1d1"
     showgrid="false"
     inkscape:zoom="1.1503073"
     inkscape:cx="274.27454"
     inkscape:cy="132.1386"
     inkscape:window-width="1440"
     inkscape:window-height="831"
     inkscape:window-x="0"
     inkscape:window-y="0"
     inkscape:window-maximized="1"
     inkscape:current-layer="svg22" /><path
     d="m 220.21294,80.455617 h 93.70725 c 2.12971,0 3.97546,-0.709904 5.11131,-2.12971 0.85188,-0.993865 1.13584,-2.271691 0.99386,-3.549518 -0.42594,-2.697633 -2.98159,-6.24715 -5.8212,-8.23488 L 303.5556,59.016533 c -2.69763,-1.98773 -7.66695,-3.549518 -10.93251,-3.549518 h -72.41015 c -0.56792,0 -1.13584,0.567923 -1.13584,1.135846 0,0.567923 0.56792,1.135846 1.13584,1.135846 h 72.41015 c 2.83961,0 7.24102,1.419806 9.65469,3.123575 l 10.64855,7.524976 c 2.27169,1.703769 4.54338,4.827344 4.82734,6.815073 0.14198,0.567923 0,1.135846 -0.42594,1.703769 -0.7099,0.851884 -1.98773,1.277826 -3.40754,1.277826 h -93.70725 c -0.56792,0 -1.13584,0.567923 -1.13584,1.135845 0,0.567923 0.56792,1.135846 1.13584,1.135846 z"
     id="path2"
     style="fill:#ed771d;fill-opacity:1;stroke-width:1.41981" /><path
     d="m 680.21294,84.715038 h 113.58455 c 0.56792,0 1.13585,-0.567923 1.13585,-1.135846 0,-0.567923 -0.56793,-1.135845 -1.13585,-1.135845 H 680.21294 c -0.56792,0 -1.13584,0.567922 -1.13584,1.135845 0,0.567923 0.56792,1.135846 1.13584,1.135846 z"
     id="path4"
     style="stroke-width:1.41981;fill:#ed771d;fill-opacity:1" /><path
     d="m 294.0429,69.097162 h 19.87729 c 0.42595,0 0.99387,-0.283962 1.13585,-0.851884 0.14198,-0.425942 0,-0.993865 -0.42594,-1.277827 l -9.93865,-7.099034 c -0.14198,-0.141981 -0.42594,-0.141981 -0.7099,-0.141981 h -9.93865 c -0.56792,0 -1.13585,0.567923 -1.13585,1.135846 v 7.099034 c 0,0.567923 0.56793,1.135846 1.13585,1.135846 z m 16.32778,-2.271691 h -15.19194 v -4.827344 h 8.37686 z"
     id="path6"
     style="fill:#ed771d;fill-opacity:1;stroke-width:1.41981" /><path
     d="m 272.60382,69.097162 h 15.75985 c 0.56792,0 1.13585,-0.567923 1.13585,-1.135846 v -7.099034 c 0,-0.567923 -0.56793,-1.135846 -1.13585,-1.135846 h -15.75985 c -0.56792,0 -1.13585,0.567923 -1.13585,1.135846 v 7.099034 c 0,0.567923 0.42594,1.135846 1.13585,1.135846 z m 14.62401,-2.271691 h -13.48817 v -4.827344 h 13.48817 z"
     id="path8"
     style="fill:#ed771d;fill-opacity:1;stroke-width:1.41981" /><path
     d="m 251.73266,69.097162 h 15.04995 c 0.56792,0 1.13585,-0.567923 1.13585,-1.135846 v -7.099034 c 0,-0.567923 -0.56793,-1.135846 -1.13585,-1.135846 h -15.04995 c -0.56793,0 -1.13585,0.567923 -1.13585,1.135846 v 7.099034 c 0,0.567923 0.42594,1.135846 1.13585,1.135846 z m 13.9141,-2.271691 H 252.8685 v -4.827344 h 12.77826 z"
     id="path10"
     style="fill:#ed771d;fill-opacity:1;stroke-width:1.41981" /><path
     d="m 230.71951,69.097162 h 15.04996 c 0.56792,0 1.13584,-0.567923 1.13584,-1.135846 v -7.099034 c 0,-0.567923 -0.56792,-1.135846 -1.13584,-1.135846 h -15.04996 c -0.56792,0 -1.13584,0.567923 -1.13584,1.135846 v 7.099034 c 0,0.567923 0.56792,1.135846 1.13584,1.135846 z m 13.91411,-2.271691 h -12.77826 v -4.827344 h 12.77826 z"
     id="path12"
     style="fill:#ed771d;fill-opacity:1;stroke-width:1.41981" /><path
     d="m 200.21294,69.097162 h 5.11131 c 0.56792,0 1.13584,-0.567923 1.13584,-1.135846 v -7.099034 c 0,-0.567923 -0.56792,-1.135846 -1.13584,-1.135846 h -5.11131 c -0.56792,0 -1.13584,0.567923 -1.13584,1.135846 0,0.567922 0.56792,1.135845 1.13584,1.135845 h 3.97546 v 4.827344 h -3.97546 c -0.56792,0 -1.13584,0.567922 -1.13584,1.135845 0,0.567923 0.56792,1.135846 1.13584,1.135846 z"
     id="path14"
     style="fill:#ed771d;fill-opacity:1;stroke-width:1.41981" /><path
     d="m 220.21294,73.356582 h 96.54687 c 0.56792,0 1.13584,-0.567922 1.13584,-1.135845 0,-0.567923 -0.56792,-1.135846 -1.13584,-1.135846 h -96.54687 c -0.56792,0 -1.13584,0.567923 -1.13584,1.135846 0,0.567923 0.56792,1.135845 1.13584,1.135845 z"
     id="path16"
     style="fill:#ed771d;fill-opacity:1;stroke-width:1.41981" /><path
     d="m 210.71951,69.097162 h 15.04996 c 0.56792,0 1.13584,-0.567923 1.13584,-1.135846 v -7.099034 c 0,-0.567923 -0.56792,-1.135846 -1.13584,-1.135846 h -15.04996 c -0.56792,0 -1.13584,0.567923 -1.13584,1.135846 v 7.099034 c 0,0.567923 0.56792,1.135846 1.13584,1.135846 z m 13.91411,-2.271691 h -12.77826 v -4.827344 h 12.77826 z"
     id="path327"
     style="fill:#ed771d;fill-opacity:1;stroke-width:1.41981" /><path
     d="m 200.21294,73.356582 h 96.54687 c 0.56792,0 1.13584,-0.567922 1.13584,-1.135845 0,-0.567923 -0.56792,-1.135846 -1.13584,-1.135846 h -96.54687 c -0.56792,0 -1.13584,0.567923 -1.13584,1.135846 0,0.567923 0.56792,1.135845 1.13584,1.135845 z"
     id="path329"
     style="fill:#ed771d;fill-opacity:1;stroke-width:1.41981" /><path
     d="m 600.22613,84.714561 h 96.54686 c 0.56792,0 1.13584,-0.567922 1.13584,-1.135845 0,-0.567923 -0.56792,-1.135846 -1.13584,-1.135846 h -96.54686 c -0.56793,0 -1.13585,0.567923 -1.13585,1.135846 0,0.567923 0.56792,1.135845 1.13585,1.135845 z"
     id="path333"
     style="stroke-width:1.41981;fill:#ed771d;fill-opacity:1" /><path
     d="m 200.21294,80.456776 h 96.54687 c 0.56792,0 1.13584,-0.567922 1.13584,-1.135845 0,-0.567923 -0.56792,-1.135846 -1.13584,-1.135846 h -96.54687 c -0.56792,0 -1.13584,0.567923 -1.13584,1.135846 0,0.567923 0.56792,1.135845 1.13584,1.135845 z"
     id="path335"
     style="fill:#ed771d;fill-opacity:1;stroke-width:1.41981" /><path
     d="m 200.16807,57.730026 h 92.73238 c 0.54548,0 1.09096,-0.567922 1.09096,-1.135845 0,-0.567923 -0.54548,-1.135846 -1.09096,-1.135846 h -92.73238 c -0.54549,0 -1.09097,0.567923 -1.09097,1.135846 0,0.567923 0.54548,1.135845 1.09097,1.135845 z"
     id="path337"
     style="fill:#ed771d;fill-opacity:1;stroke-width:1.39148" /><path
     d="m 540.22613,84.714561 h 96.54686 c 0.56792,0 1.13584,-0.567922 1.13584,-1.135845 0,-0.567923 -0.56792,-1.135846 -1.13584,-1.135846 h -96.54686 c -0.56793,0 -1.13585,0.567923 -1.13585,1.135846 0,0.567923 0.56792,1.135845 1.13585,1.135845 z"
     id="path313"
     style="stroke-width:1.41981;fill:#ed771d;fill-opacity:1" /><path
     d="m 460.22613,84.714561 h 96.54686 c 0.56792,0 1.13584,-0.567922 1.13584,-1.135845 0,-0.567923 -0.56792,-1.135846 -1.13584,-1.135846 h -96.54686 c -0.56793,0 -1.13585,0.567923 -1.13585,1.135846 0,0.567923 0.56792,1.135845 1.13585,1.135845 z"
     id="path315"
     style="stroke-width:1.41981;fill:#ed771d;fill-opacity:1" /><path
     d="m 380.22613,84.714561 h 96.54686 c 0.56792,0 1.13584,-0.567922 1.13584,-1.135845 0,-0.567923 -0.56792,-1.135846 -1.13584,-1.135846 h -96.54686 c -0.56793,0 -1.13585,0.567923 -1.13585,1.135846 0,0.567923 0.56792,1.135845 1.13585,1.135845 z"
     id="path317"
     style="stroke-width:1.41981;fill:#ed771d;fill-opacity:1" /><path
     d="m 288.22613,84.714561 h 96.54686 c 0.56792,0 1.13584,-0.567922 1.13584,-1.135845 0,-0.567923 -0.56792,-1.135846 -1.13584,-1.135846 h -96.54686 c -0.56793,0 -1.13585,0.567923 -1.13585,1.135846 0,0.567923 0.56792,1.135845 1.13585,1.135845 z"
     id="path319"
     style="stroke-width:1.41981;fill:#ed771d;fill-opacity:1" /><path
     d="m 200.22613,84.714561 h 96.54686 c 0.56792,0 1.13584,-0.567922 1.13584,-1.135845 0,-0.567923 -0.56792,-1.135846 -1.13584,-1.135846 h -96.54686 c -0.56793,0 -1.13585,0.567923 -1.13585,1.135846 0,0.567923 0.56792,1.135845 1.13585,1.135845 z"
     id="path321"
     style="stroke-width:1.41981;fill:#ed771d;fill-opacity:1" /></svg>
